# xmcd CD database file
#
# Track frame offsets:
#	150
#	20796
#	46784
#	64588
#	80338
#	100032
#	123101
#	153976
#	176312
#	198953
#	219353
#	251404
#	270473
#	290726
#
# Disc length: 4144 seconds
#
# Revision: 2
# Processed by: cddbd v1.5.2PL0 Copyright (c) Steve Scherf et al.
# Submitted via: CDex 1.40Release
#
DISCID=b3102e0e
DTITLE=The Gift - Facil De Entender
DYEAR=2007
DGENRE=Electronica
TTITLE0=Music
TTITLE1=645
TTITLE2=11:33
TTITLE3=You Know
TTITLE4=Driving You Slow
TTITLE5=Fácil De Entender
TTITLE6=Me Myslef And I
TTITLE7=My Lovely Mirror
TTITLE8=Cube
TTITLE9=Pure
TTITLE10=1977
TTITLE11=Question Of Love
TTITLE12=Ok! Do You Want Something Simple?
TTITLE13=Nice And Sweet
EXTD=YEAR: 2007
EXTT0=
EXTT1=
EXTT2=
EXTT3=
EXTT4=
EXTT5=
EXTT6=
EXTT7=
EXTT8=
EXTT9=
EXTT10=
EXTT11=
EXTT12=
EXTT13=
PLAYORDER=
